PathFileType	4	(X/Y/Z)	49_2_rein_94_p1_0-202_filt_butterworth.trc
DataRate	CameraRate	NumFrames	NumMarkers	Units	OrigDataRate	OrigDataStartFrame	OrigNumFrames
59.0	59.0	7	27	m	59.0	126	202
Frame#	Time	RHip			RKnee			RAnkle			RBigToe			RSmallToe			RHeel			LHip			LKnee			LAnkle			LBigToe			LSmallToe			LHeel			Neck			Head			Nose			RShoulder			RElbow			RWrist			RThumb			RIndex			RPinky			LShoulder			LElbow			LWrist			LThumb			LIndex			LPinky			
		X1	Y1	Z1	X2	Y2	Z2	X3	Y3	Z3	X4	Y4	Z4	X5	Y5	Z5	X6	Y6	Z6	X7	Y7	Z7	X8	Y8	Z8	X9	Y9	Z9	X10	Y10	Z10	X11	Y11	Z11	X12	Y12	Z12	X13	Y13	Z13	X14	Y14	Z14	X15	Y15	Z15	X16	Y16	Z16	X17	Y17	Z17	X18	Y18	Z18	X19	Y19	Z19	X20	Y20	Z20	X21	Y21	Z21	X22	Y22	Z22	X23	Y23	Z23	X24	Y24	Z24	X25	Y25	Z25	X26	Y26	Z26	X27	Y27	Z27	
126	2.135593220338983	0.38174701197664807	0.5894272876381397	0.7273770620157951	0.3353033082794367	0.7809884676121631	1.1760579855013038	0.3230299555520636	1.0029931302939723	1.5901712406128201	0.2987666433806705	0.8215387431412023	1.6687931059660381	0.37137354836104974	0.8441610655676096	1.6675226630320696	0.3197142672782552	1.1342016290659152	1.636912928280401	0.1760708433597046	0.6001454902639036	0.713163547530725	0.16866232512015408	0.7986923855087547	1.1791470588138675	0.18347272363827558	1.0328070615238316	1.5796225744247783	0.15613414824333902	0.8191833528036407	1.6459790443016715	0.11202180994435787	0.8847108589562482	1.6491012463622539	0.2011846808971	1.1565810584612102	1.6465877792488963	0.3075075586896488	0.4472578430780835	0.24048126416229812	0.3651762117054872	0.3317090294700421	0.02579154771088772	0.33656547508139706	0.29618070590140716	0.18222014107150464	0.43587492224401403	0.4447179463306049	0.275905895216639	0.5551789471050574	0.32187908591475983	0.10363431705246884	0.6462475406763597	0.19319790665585745	-0.07432222486710506	0.6201740113956276	0.08026343006038951	-0.17322697573455723	0.6330689436375185	0.06553634149593901	-0.2053180515907044	0.7013340707525044	0.1403699171041518	-0.18683409819606606	0.18032760010005283	0.44259533293416276	0.2397309349750186	0.10739627554106772	0.3276130791679712	0.05079168551793102	0.17630552883337094	0.14836871810929259	-0.09879505902612723	0.21765322932390208	0.09350438968122751	-0.19159041665561366	0.20536330667655572	0.12313866457187864	-0.24383106082924372	0.16831203782231494	0.1028833019969264	-0.21955204275595283
127	2.152542372881356	0.3815772528171144	0.5892306292548509	0.7273647269335239	0.3331417390628125	0.7805768800943995	1.1756790755797286	0.32170274706400076	0.9984570157608583	1.589390821394776	0.2995021632541947	0.8252094559925626	1.6695557687670908	0.37128350674317556	0.8442190387187619	1.667570320995106	0.3187478687828804	1.1305121511965888	1.6372766179540528	0.17609620042809124	0.6001628767116771	0.7131710337361112	0.1686124886178041	0.7985780158353812	1.1790660930581387	0.1834225551342667	1.0326425276334126	1.579578431335621	0.15617207649582798	0.8116484400869116	1.6438197275898574	0.11072580057598083	0.8902641249605073	1.6491146552011928	0.2001356307586305	1.1559105711282927	1.6463351725516204	0.30945813368263664	0.4504064256718312	0.24083679703391406	0.36841329533141864	0.33295059263978943	0.026063926485876274	0.3380986132993265	0.29602968072898006	0.1821190452048907	0.4378366512575668	0.44564904389810683	0.2775724900706357	0.559249192684525	0.32104878867667597	0.10883930035475839	0.6443601433944586	0.1860432334881026	-0.06994923994463277	0.6165366075726189	0.09111780485687475	-0.17351512860203572	0.6322782569492651	0.06977746535084955	-0.20614245217499783	0.6976710528511252	0.14025495251413786	-0.1870990299897358	0.18060136365529275	0.4435481501155232	0.2412952502647273	0.10521412409389046	0.32890586452095205	0.05219784086014901	0.17603229370453954	0.14279729969965088	-0.09449099962442874	0.22424930861195616	0.08673412150761443	-0.1848134686466765	0.20855508114888271	0.12514835747680658	-0.24297482767954148	0.16928790309317257	0.10259322974866678	-0.21987892471587375
128	2.169491525423729	0.38146098559606684	0.5889336972007615	0.7274290425193555	0.3334155013461231	0.7790567119650652	1.1757554965244694	0.3209943002250109	0.9963344477073242	1.5890391278983644	0.3009612092786445	0.8303888941515309	1.6705742577062987	0.3712414738136044	0.8443400800122741	1.6675804810839645	0.31616188055582317	1.1211820170780413	1.6365508410112666	0.1762599571882287	0.6002388350483032	0.7131125376225738	0.16851771665568846	0.7984462778467609	1.1789995747993707	0.18326824665930463	1.0325552406386502	1.5795313920872192	0.15569908358339962	0.8071919469952397	1.6428492336426856	0.10972047727751721	0.8944771208374015	1.6491521470300223	0.19941721725457434	1.1543053093183167	1.6459159625290518	0.31092264481288223	0.4506779064864707	0.241361870080405	0.3705089860584122	0.3357340219773435	0.026215865908829274	0.3384241745330603	0.29608223145166757	0.18169843752556203	0.44061630420223474	0.4482950288586766	0.27917234452010836	0.5653738993046337	0.3196958990412185	0.11325293274771145	0.6426870859089416	0.17775629918436736	-0.06583381233177493	0.6137183583566651	0.10205419880267118	-0.17448350284492956	0.6319530983706565	0.07368974788214101	-0.20628368028530575	0.6927770567580913	0.1396311967091352	-0.1864084951271952	0.18059228610035205	0.44394773050904823	0.24211474652501153	0.10229148490797041	0.33008428069051093	0.053672407414894624	0.17590817516021184	0.13911673314763143	-0.09283715117372966	0.23095543644893757	0.08479413599016379	-0.18200185310205558	0.21171356947769088	0.12684524340892234	-0.24309528844590036	0.16983958656830425	0.10144445140116376	-0.2204333277796036
129	2.1864406779661016	0.3818779360319424	0.5890261166114683	0.7274734645166728	0.3358914300056816	0.7767058004630433	1.1762623973211428	0.3209772670625052	0.9966379213074977	1.5891170366293594	0.3027580631924921	0.834820582145044	1.6713221350068812	0.37140040379187467	0.8445330177710804	1.6675391898237757	0.31285028306803997	1.1094273086391044	1.6344112997007978	0.1764596664464086	0.600468712044107	0.7130970835289496	0.16843010809353795	0.7983034051370381	1.1790118273440824	0.1830431236623588	1.0326028217194283	1.5795145725710635	0.15461306984594975	0.8090911146024429	1.6434255095886858	0.1093162535626085	0.8961331535433813	1.649211590461951	0.1993896458932989	1.1530085951020286	1.6454377494749433	0.312867029711089	0.4479060161273324	0.24227871792380629	0.3718808764383619	0.33939169184944484	0.026139052233159515	0.3383450300221358	0.29634070386150746	0.18092829972808747	0.4434889975105072	0.4521156161002654	0.28005323308972396	0.5720345767961512	0.31924894186746156	0.11682823869300574	0.641821460133575	0.1708547041022717	-0.06089268433190036	0.6130428462588016	0.10740016598636669	-0.17447021548478592	0.6319903981553979	0.07596739173034761	-0.2044434418751114	0.6885322139204154	0.1389459909052804	-0.18423842861547166	0.1805837473834617	0.4438050574787005	0.2422051415842359	0.1002100369667149	0.3300451325814672	0.05458790482334855	0.17596373601240375	0.13786687426760014	-0.09296807010651771	0.23572807141670438	0.08552495030463748	-0.18145288468832962	0.21503725207248905	0.12498030081020213	-0.2414173762404903	0.16992390005331054	0.10054462951014281	-0.22050942108184665
130	2.2033898305084745	0.3834201262857892	0.5905547732581803	0.7273559377708612	0.3387234219425595	0.7754466735472502	1.1767417611097974	0.32207646364799936	0.9995840596844527	1.5896541260184447	0.30414128773946764	0.8370122681240111	1.6715361391742103	0.3720760889660754	0.8447219692104507	1.6674270891304683	0.3108745908042684	1.1024036567411468	1.6321575919246691	0.176513798669234	0.6008326725849088	0.7130931295002911	0.16855680530927086	0.79813226145319	1.1791299119027785	0.18289011775088804	1.0327252693940885	1.5795679025732716	0.15357781189305092	0.8144915478688122	1.6447427172699987	0.10933855661359036	0.8962157055532392	1.6493086880278394	0.1996120646619149	1.152802130005821	1.6451343992261604	0.3152546130601655	0.4436384444182512	0.2436816845969468	0.3730247936545329	0.34235400575407976	0.025922248847976503	0.3383818457886315	0.2964501463412998	0.18008505250666315	0.4461553764848571	0.45533318368204634	0.28040892028858433	0.5775579689577909	0.3207981563924863	0.12087828869356508	0.6414828595802228	0.16594299057265527	-0.053361772282959144	0.6138000981107165	0.10553081251332824	-0.1722098306615038	0.6318712450051529	0.07643255516089564	-0.199364329383772	0.6848691700079844	0.13835458052026076	-0.18019161940707265	0.18050510872010112	0.4433231361479653	0.24169870854866585	0.098828257472387	0.3277609713234383	0.055292404574521885	0.176109617695125	0.13819370796587804	-0.09254833872806707	0.23803072823299862	0.08598931716935306	-0.18078594015252777	0.2194427339931535	0.11706782097936475	-0.2351318381958383	0.17021340146392724	0.09901338050814057	-0.21855407932946158
131	2.2203389830508478	0.3860099570420794	0.5942195990997886	0.7270363650583763	0.34041864670666283	0.7764911483236346	1.1766808838727818	0.32470164686467673	1.004448312244725	1.590488547672566	0.3047969941925132	0.8374050922834723	1.6714230346475882	0.3735211491551696	0.8448332257967172	1.6672394489891287	0.3112580395011414	1.1035730759935087	1.6308269454925346	0.17632552358204376	0.6011540716362492	0.7130381735934955	0.16931160330844003	0.7978285500231828	1.1791896758055267	0.1829013204613329	1.0327189650167226	1.5796546936618316	0.1534799544980365	0.8205816271108074	1.6461612107284525	0.10951630064924309	0.8960103642383802	1.6494506610704116	0.199806088676382	1.1532593839755334	1.644923188360489	0.31699224354677064	0.4403598903606769	0.24543359906524137	0.37392275260708197	0.343893402923913	0.02595591927050782	0.33886670220408743	0.2962900167064134	0.17961889293465896	0.44900328108933496	0.45683347913408023	0.2805969750424198	0.5816850104977145	0.3248333075632936	0.12562614695025995	0.6412275491476147	0.16175179642308515	-0.044102973003669554	0.614700390850187	0.09910525485017099	-0.1675695132926264	0.6310327119438798	0.07607724495572248	-0.19171756700108672	0.6813815817250997	0.13796091653514328	-0.17505248977052568	0.1799944538839913	0.44268638200560356	0.24082390298448747	0.09650060266875436	0.32324273143212673	0.05617869050912808	0.17601278580015903	0.1386833119742805	-0.09014879834145638	0.2389064359063651	0.08458421665368618	-0.17892714326117481	0.22487190979330662	0.10418521994971922	-0.22453491004353424	0.17100196345797036	0.0965072971913514	-0.21455066384612909
132	2.23728813559322	0.38857756017238887	0.598978430221488	0.7266382915772113	0.34095120115590816	0.7783273581476218	1.1758355864113061	0.3280155894014762	1.0069467807724943	1.5908329369561465	0.3049908001656225	0.8370689256351073	1.6712275440183593	0.37540050451982604	0.8448762481722888	1.6670249935569574	0.31303233010692383	1.1094334802041714	1.6302764277089394	0.17600740553194524	0.6013165565840755	0.7129289496962458	0.1709241381492398	0.7973074500746822	1.1787497657495563	0.18310033217481927	1.0324482648398983	1.5796708531506385	0.154306951491747	0.8260653041341135	1.6473986133266991	0.10971070680190337	0.8959959459996599	1.6495935499410457	0.20008863922171366	1.1534660468238516	1.6442023218698343	0.31764278668263735	0.4394536287877862	0.24710176154926095	0.37482681800979506	0.34430989127634015	0.0268593025611528	0.3399809583110475	0.2960930123774231	0.17958206551870035	0.45234452079900855	0.4568751516983098	0.280701451216434	0.5851645080517787	0.32997895340355543	0.12970086303643477	0.6410202615889877	0.1575674168882356	-0.03661487870249648	0.614450260905108	0.09282081171594678	-0.16223121475489116	0.6295661923600984	0.0764173780376438	-0.18449947431041366	0.6785420973583435	0.13769020782927652	-0.17037719665423096	0.17883389010700723	0.44209527387071446	0.24015742260117875	0.09181661465847468	0.31855671803082725	0.05690877773926428	0.1750856297146588	0.1378528663528204	-0.0859756098246826	0.2393967306539821	0.08188760365994457	-0.17549496880589588	0.23001220666266092	0.0902099785090415	-0.21289104679837792	0.17176520746849686	0.09358831353990973	-0.20952755747826493
